Coordinates
version=1
nRows=7
nColumns=40
inDegrees=yes

Units are S.I. units (second, meters, Newtons, ...)
If the header above contains a line with 'inDegrees', this indicates whether rotational values are in degrees (yes) or radians (no).

endheader
time	pelvis_tilt	pelvis_list	pelvis_rotation	pelvis_tx	pelvis_ty	pelvis_tz	hip_flexion_r	hip_adduction_r	hip_rotation_r	knee_angle_r	knee_angle_r_beta	ankle_angle_r	subtalar_angle_r	mtp_angle_r	hip_flexion_l	hip_adduction_l	hip_rotation_l	knee_angle_l	knee_angle_l_beta	ankle_angle_l	subtalar_angle_l	mtp_angle_l	lumbar_extension	lumbar_bending	lumbar_rotation	arm_flex_r	arm_add_r	arm_rot_r	elbow_flex_r	pro_sup_r	wrist_flex_r	wrist_dev_r	arm_flex_l	arm_add_l	arm_rot_l	elbow_flex_l	pro_sup_l	wrist_flex_l	wrist_dev_l
      5.83000000	     -4.28948987	      0.31170985	      3.34738237	     -0.12761076	      1.45263707	     -0.86330555	     -8.72245939	     -6.47396248	    -22.20436001	      8.56914130	      0.14955973	    -38.33016813	      0.00000000	      0.00000000	     -7.22282128	    -11.85972451	    -15.64953064	     10.77314898	      0.18802692	    -37.62960050	      0.00000000	      0.00000000	      3.63313760	     -1.69102659	      2.39442711	    -31.75239546	    -52.47567350	     34.46806079	     96.79644026	     87.85280186	      0.00000000	      0.00000000	    -27.47662502	    -55.54294431	     36.18213907	    100.29663002	     87.68379831	      0.00000000	      0.00000000
      5.83500000	     -4.37744089	      0.25087473	      3.40412852	     -0.12807481	      1.45231476	     -0.86299307	     -8.47584946	     -6.43727684	    -21.59438481	      8.27566573	      0.14443761	    -38.32167340	      0.00000000	      0.00000000	     -7.04430425	    -11.91063081	    -14.90773413	     10.28205019	      0.17945563	    -37.45670415	      0.00000000	      0.00000000	      3.62515506	     -1.65194664	      2.43348756	    -31.91910015	    -52.42710841	     34.25885232	     96.86617326	     87.83572308	      0.00000000	      0.00000000	    -27.50944634	    -55.49400178	     36.09560277	    100.33326297	     87.71259342	      0.00000000	      0.00000000
      5.84000000	     -4.47285034	      0.17852812	      3.44725176	     -0.12849647	      1.45173335	     -0.86271872	     -8.18119129	     -6.43508112	    -21.44896202	      8.06668719	      0.14079025	    -38.23562215	      0.00000000	      0.00000000	     -6.77987143	    -12.01108569	    -14.63623654	      9.95143756	      0.17368535	    -37.35753495	      0.00000000	      0.00000000	      3.64274481	     -1.59515150	      2.52829052	    -32.01210285	    -52.39582543	     34.20715004	     96.89797389	     87.83322869	      0.00000000	      0.00000000	    -27.52961913	    -55.40799876	     36.00013624	    100.37880248	     87.71491871	      0.00000000	      0.00000000
      5.84500000	     -4.64749505	      0.16792926	      3.52646592	     -0.12886465	      1.45074309	     -0.86254149	     -7.82956525	     -6.50711936	    -21.16223239	      7.84954499	      0.13700040	    -38.23606756	      0.00000000	      0.00000000	     -6.53112904	    -12.01837464	    -14.12286708	      9.43262696	      0.16463040	    -37.16918317	      0.00000000	      0.00000000	      3.73137655	     -1.61466015	      2.51680510	    -32.12597881	    -52.34747001	     34.03739916	     96.89141519	     87.82606304	      0.00000000	      0.00000000	    -27.70963780	    -55.39173539	     35.94563927	    100.34568173	     87.74648840	      0.00000000	      0.00000000
      5.85000000	     -4.69532226	      0.14424677	      3.63968736	     -0.12944051	      1.44972163	     -0.86243727	     -7.58801520	     -6.57962161	    -21.14528232	      7.69220565	      0.13425432	    -38.10571707	      0.00000000	      0.00000000	     -6.31772580	    -12.07022963	    -13.78240344	      9.07212057	      0.15833837	    -36.99634098	      0.00000000	      0.00000000	      3.61973953	     -1.60928937	      2.51151955	    -32.18109283	    -52.30372278	     33.99366834	     96.88738522	     87.82845186	      0.00000000	      0.00000000	    -27.67604307	    -55.34258588	     35.83465603	    100.41572469	     87.75246466	      0.00000000	      0.00000000
      5.85500000	     -4.79776468	      0.06018606	      3.65036931	     -0.12946736	      1.44821518	     -0.86209599	     -7.29863345	     -6.60780000	    -21.18806991	      7.54059938	      0.13160829	    -38.07721606	      0.00000000	      0.00000000	     -6.19322176	    -12.16073809	    -13.19462272	      8.56491489	      0.14948596	    -36.86280029	      0.00000000	      0.00000000	      3.64294744	     -1.53340595	      2.56496196	    -32.38070698	    -52.27179200	     33.84411824	     96.86698099	     87.83393933	      0.00000000	      0.00000000	    -27.91520188	    -55.35809387	     35.70440109	    100.37581533	     87.76444867	      0.00000000	      0.00000000
      5.86000000	     -4.78434569	      0.04225887	      3.74782688	     -0.13019273	      1.44676180	     -0.86189779	     -7.10381155	     -6.70182136	    -21.27530282	      7.43177074	      0.12970887	    -37.99049551	      0.00000000	      0.00000000	     -5.96575255	    -12.26305203	    -13.20992631	      8.39137250	      0.14645708	    -36.76063562	      0.00000000	      0.00000000	      3.43578872	     -1.52894660	      2.54076640	    -32.33218318	    -52.26324374	     33.83124089	     96.85091633	     87.83440593	      0.00000000	      0.00000000	    -27.85881561	    -55.40085304	     35.67484607	    100.38299924	     87.76216038	      0.00000000	      0.00000000
